<?xml version="1.0" encoding="UTF-8" standalone="no"?>
<!DOCTYPE svg PUBLIC "-//W3C//DTD SVG 1.1//EN" "http://www.w3.org/Graphics/SVG/1.1/DTD/svg11.dtd">
<svg width="100%" height="100%" viewBox="0 0 148 72" version="1.1" xmlns="http://www.w3.org/2000/svg" xmlns:xlink="http://www.w3.org/1999/xlink" xml:space="preserve" xmlns:serif="http://www.serif.com/" style="fill-rule:evenodd;clip-rule:evenodd;">
    <path d="M15.5,4.253L15.5,12.253C15.5,14.185 13.932,15.753 12,15.753L4,15.753C2.068,15.753 0.5,14.185 0.5,12.253L0.5,4.253C0.5,2.321 2.068,0.753 4,0.753L12,0.753C13.932,0.753 15.5,2.321 15.5,4.253Z" style="fill:rgb(24,24,27);stroke:rgb(39,39,42);stroke-width:1px;"/>
    <path d="M35.5,4.253L35.5,12.253C35.5,14.185 33.932,15.753 32,15.753L24,15.753C22.068,15.753 20.5,14.185 20.5,12.253L20.5,4.253C20.5,2.321 22.068,0.753 24,0.753L32,0.753C33.932,0.753 35.5,2.321 35.5,4.253Z" style="fill:rgb(20,83,45);stroke:rgb(21,128,61);stroke-width:1px;"/>
    <path d="M55.5,4.253L55.5,12.253C55.5,14.185 53.932,15.753 52,15.753L44,15.753C42.068,15.753 40.5,14.185 40.5,12.253L40.5,4.253C40.5,2.321 42.068,0.753 44,0.753L52,0.753C53.932,0.753 55.5,2.321 55.5,4.253Z" style="fill:rgb(22,101,52);stroke:rgb(22,163,74);stroke-width:1px;"/>
    <path d="M75.5,4.253L75.5,12.253C75.5,14.185 73.932,15.753 72,15.753L64,15.753C62.068,15.753 60.5,14.185 60.5,12.253L60.5,4.253C60.5,2.321 62.068,0.753 64,0.753L72,0.753C73.932,0.753 75.5,2.321 75.5,4.253Z" style="fill:rgb(21,128,61);stroke:rgb(34,197,94);stroke-width:1px;"/>
    <path d="M95.5,4.253L95.5,12.253C95.5,14.185 93.932,15.753 92,15.753L84,15.753C82.068,15.753 80.5,14.185 80.5,12.253L80.5,4.253C80.5,2.321 82.068,0.753 84,0.753L92,0.753C93.932,0.753 95.5,2.321 95.5,4.253Z" style="fill:rgb(22,163,74);stroke:rgb(74,222,128);stroke-width:1px;"/>
    <path d="M115.5,4.253L115.5,12.253C115.5,14.185 113.932,15.753 112,15.753L104,15.753C102.068,15.753 100.5,14.185 100.5,12.253L100.5,4.253C100.5,2.321 102.068,0.753 104,0.753L112,0.753C113.932,0.753 115.5,2.321 115.5,4.253Z" style="fill:rgb(34,197,94);stroke:rgb(134,239,172);stroke-width:1px;"/>
    <g transform="matrix(1.07888,0,0,1.07888,-4.04118,0.398782)">
        <g id="Layer1">
            <g transform="matrix(44.0007,0,0,48,2.77696,65.7746)">
                <path d="M0.35,-0.545L0.35,-0.432L0.022,-0.432L0.022,-0.545L0.35,-0.545ZM0.097,-0.676L0.248,-0.676L0.248,-0.168C0.248,-0.154 0.25,-0.143 0.254,-0.135C0.259,-0.127 0.264,-0.122 0.272,-0.119C0.28,-0.116 0.289,-0.114 0.299,-0.114C0.306,-0.114 0.313,-0.115 0.32,-0.116C0.327,-0.118 0.333,-0.119 0.337,-0.119L0.36,-0.007C0.353,-0.004 0.342,-0.002 0.328,0.001C0.315,0.005 0.298,0.007 0.278,0.007C0.242,0.009 0.21,0.004 0.183,-0.007C0.155,-0.018 0.134,-0.036 0.119,-0.059C0.104,-0.082 0.096,-0.112 0.097,-0.148L0.097,-0.676Z" style="fill:white;fill-rule:nonzero;"/>
            </g>
            <g transform="matrix(44.0007,0,0,48,19.871,65.7746)">
                <path d="M0.06,-0L0.06,-0.545L0.207,-0.545L0.207,-0.45L0.213,-0.45C0.223,-0.484 0.239,-0.51 0.263,-0.527C0.286,-0.545 0.313,-0.553 0.344,-0.553C0.351,-0.553 0.359,-0.553 0.368,-0.552C0.377,-0.551 0.385,-0.55 0.391,-0.548L0.391,-0.414C0.384,-0.416 0.374,-0.418 0.362,-0.419C0.349,-0.421 0.338,-0.422 0.327,-0.422C0.305,-0.422 0.285,-0.417 0.268,-0.407C0.25,-0.398 0.237,-0.385 0.227,-0.368C0.217,-0.35 0.212,-0.331 0.212,-0.309L0.212,-0L0.06,-0Z" style="fill:white;fill-rule:nonzero;"/>
            </g>
            <g transform="matrix(44.0007,0,0,48,37.8557,65.7746)">
                <path d="M0.216,0.01C0.181,0.01 0.15,0.004 0.123,-0.008C0.096,-0.02 0.074,-0.038 0.058,-0.062C0.043,-0.086 0.035,-0.116 0.035,-0.152C0.035,-0.183 0.04,-0.208 0.051,-0.229C0.063,-0.249 0.078,-0.266 0.097,-0.278C0.116,-0.291 0.138,-0.3 0.162,-0.307C0.187,-0.313 0.213,-0.318 0.24,-0.32C0.271,-0.324 0.297,-0.327 0.316,-0.33C0.336,-0.333 0.35,-0.337 0.359,-0.343C0.367,-0.349 0.372,-0.358 0.372,-0.369L0.372,-0.371C0.372,-0.394 0.365,-0.411 0.35,-0.424C0.337,-0.436 0.317,-0.442 0.291,-0.442C0.264,-0.442 0.242,-0.436 0.226,-0.424C0.21,-0.412 0.199,-0.397 0.194,-0.379L0.054,-0.391C0.061,-0.424 0.075,-0.452 0.096,-0.477C0.117,-0.501 0.144,-0.52 0.176,-0.533C0.21,-0.546 0.248,-0.553 0.292,-0.553C0.322,-0.553 0.351,-0.549 0.379,-0.542C0.406,-0.535 0.431,-0.524 0.453,-0.509C0.475,-0.494 0.492,-0.475 0.504,-0.451C0.517,-0.428 0.523,-0.4 0.523,-0.368L0.523,-0L0.38,-0L0.38,-0.076L0.375,-0.076C0.367,-0.059 0.355,-0.044 0.34,-0.031C0.326,-0.018 0.308,-0.008 0.287,-0C0.267,0.007 0.243,0.01 0.216,0.01ZM0.259,-0.094C0.281,-0.094 0.301,-0.098 0.318,-0.107C0.335,-0.116 0.349,-0.128 0.358,-0.143C0.368,-0.159 0.373,-0.176 0.373,-0.195L0.373,-0.253C0.368,-0.25 0.362,-0.247 0.353,-0.244C0.345,-0.242 0.336,-0.24 0.326,-0.238C0.316,-0.236 0.306,-0.234 0.295,-0.232C0.285,-0.231 0.276,-0.23 0.268,-0.228C0.25,-0.226 0.234,-0.222 0.221,-0.216C0.208,-0.21 0.198,-0.203 0.19,-0.193C0.183,-0.183 0.179,-0.172 0.179,-0.157C0.179,-0.137 0.187,-0.121 0.202,-0.11C0.217,-0.099 0.236,-0.094 0.259,-0.094Z" style="fill:white;fill-rule:nonzero;"/>
            </g>
            <g transform="matrix(44.0007,0,0,48,63.3873,65.7746)">
                <path d="M0.261,0.009C0.22,0.009 0.182,-0.002 0.149,-0.023C0.115,-0.045 0.089,-0.076 0.069,-0.118C0.05,-0.16 0.04,-0.211 0.04,-0.272C0.04,-0.335 0.05,-0.386 0.07,-0.428C0.09,-0.47 0.117,-0.501 0.151,-0.521C0.184,-0.542 0.221,-0.553 0.261,-0.553C0.292,-0.553 0.317,-0.547 0.337,-0.537C0.358,-0.527 0.375,-0.514 0.387,-0.499C0.4,-0.483 0.41,-0.469 0.416,-0.454L0.421,-0.454L0.421,-0.727L0.572,-0.727L0.572,-0L0.423,-0L0.423,-0.087L0.416,-0.087C0.409,-0.072 0.399,-0.057 0.386,-0.042C0.373,-0.028 0.357,-0.015 0.336,-0.006C0.316,0.004 0.291,0.009 0.261,0.009ZM0.309,-0.112C0.334,-0.112 0.354,-0.118 0.371,-0.131C0.388,-0.145 0.401,-0.164 0.41,-0.188C0.419,-0.212 0.424,-0.24 0.424,-0.273C0.424,-0.305 0.42,-0.333 0.411,-0.357C0.402,-0.381 0.388,-0.4 0.371,-0.413C0.354,-0.426 0.334,-0.432 0.309,-0.432C0.284,-0.432 0.263,-0.425 0.246,-0.412C0.229,-0.398 0.217,-0.38 0.208,-0.356C0.199,-0.332 0.195,-0.304 0.195,-0.273C0.195,-0.241 0.199,-0.213 0.208,-0.189C0.217,-0.164 0.23,-0.145 0.246,-0.132C0.263,-0.118 0.284,-0.112 0.309,-0.112Z" style="fill:white;fill-rule:nonzero;"/>
            </g>
            <g transform="matrix(44.0007,0,0,48,91.3409,65.7746)">
                <path d="M0.309,0.011C0.253,0.011 0.205,-0.001 0.164,-0.023C0.124,-0.046 0.093,-0.079 0.071,-0.121C0.049,-0.163 0.038,-0.213 0.038,-0.27C0.038,-0.326 0.049,-0.376 0.071,-0.418C0.093,-0.46 0.123,-0.493 0.163,-0.517C0.203,-0.541 0.249,-0.553 0.303,-0.553C0.339,-0.553 0.372,-0.547 0.403,-0.535C0.435,-0.524 0.462,-0.507 0.485,-0.484C0.509,-0.461 0.527,-0.432 0.54,-0.397C0.553,-0.362 0.559,-0.322 0.559,-0.276L0.559,-0.234L0.099,-0.234L0.099,-0.328L0.417,-0.328C0.417,-0.35 0.412,-0.369 0.403,-0.386C0.393,-0.402 0.38,-0.416 0.363,-0.425C0.347,-0.435 0.327,-0.44 0.305,-0.44C0.282,-0.44 0.262,-0.434 0.244,-0.424C0.227,-0.413 0.213,-0.399 0.203,-0.381C0.193,-0.364 0.188,-0.344 0.188,-0.323L0.188,-0.234C0.188,-0.207 0.193,-0.183 0.203,-0.164C0.213,-0.144 0.227,-0.129 0.246,-0.118C0.264,-0.108 0.286,-0.102 0.311,-0.102C0.328,-0.102 0.344,-0.105 0.358,-0.109C0.372,-0.114 0.384,-0.121 0.393,-0.131C0.403,-0.14 0.411,-0.152 0.416,-0.165L0.556,-0.156C0.549,-0.123 0.534,-0.093 0.512,-0.068C0.491,-0.043 0.462,-0.024 0.428,-0.01C0.394,0.004 0.354,0.011 0.309,0.011Z" style="fill:white;fill-rule:nonzero;"/>
            </g>
            <g transform="matrix(44.0007,0,0,48,117.638,65.7746)">
                <path d="M0.514,-0.39L0.376,-0.381C0.373,-0.393 0.368,-0.404 0.36,-0.413C0.353,-0.423 0.342,-0.431 0.33,-0.436C0.317,-0.442 0.302,-0.445 0.284,-0.445C0.261,-0.445 0.241,-0.44 0.225,-0.43C0.209,-0.421 0.201,-0.408 0.201,-0.391C0.201,-0.378 0.206,-0.367 0.217,-0.358C0.227,-0.349 0.245,-0.342 0.27,-0.337L0.369,-0.317C0.422,-0.306 0.462,-0.288 0.488,-0.264C0.514,-0.24 0.527,-0.208 0.527,-0.169C0.527,-0.133 0.516,-0.102 0.495,-0.075C0.474,-0.048 0.446,-0.027 0.409,-0.012C0.373,0.003 0.331,0.011 0.284,0.011C0.212,0.011 0.154,-0.004 0.111,-0.034C0.069,-0.065 0.044,-0.106 0.036,-0.158L0.185,-0.166C0.19,-0.144 0.2,-0.127 0.218,-0.115C0.235,-0.104 0.257,-0.098 0.284,-0.098C0.311,-0.098 0.332,-0.103 0.348,-0.114C0.364,-0.124 0.373,-0.137 0.373,-0.154C0.373,-0.167 0.367,-0.179 0.355,-0.188C0.344,-0.196 0.327,-0.203 0.303,-0.208L0.208,-0.227C0.155,-0.238 0.116,-0.256 0.089,-0.282C0.064,-0.309 0.051,-0.342 0.051,-0.383C0.051,-0.418 0.06,-0.448 0.079,-0.473C0.098,-0.499 0.125,-0.518 0.16,-0.532C0.195,-0.546 0.235,-0.553 0.282,-0.553C0.351,-0.553 0.405,-0.538 0.445,-0.509C0.484,-0.48 0.508,-0.44 0.514,-0.39Z" style="fill:white;fill-rule:nonzero;"/>
            </g>
        </g>
    </g>
</svg>
